<svg xmlns="http://www.w3.org/2000/svg" width="122" height="21" fill="none"><path fill="#525C65" d="m4.588 3.928 3.287 9.282 3.27-9.282h3.463v12.797h-2.646v-3.498l.264-6.038-3.454 9.536h-1.81L3.515 7.198l.264 6.03v3.497H1.143V3.928h3.445Zm19.705 10.16H19.67l-.879 2.637h-2.803L20.75 3.928h2.444l4.79 12.797H25.18l-.888-2.637Zm-3.911-2.135h3.2l-1.61-4.79-1.59 4.79Zm17.376-5.889h-3.92v10.661h-2.637V6.064h-3.867V3.928h10.424v2.136Zm9.211 5.115h-5.063v3.428h5.942v2.118H39.27V3.928h8.56v2.136h-5.923v3.05h5.062v2.065Zm7.163.862h-2.1v4.684h-2.637V3.928h4.755c1.511 0 2.677.337 3.498 1.011.82.674 1.23 1.626 1.23 2.856 0 .874-.19 1.603-.571 2.189-.375.58-.946 1.043-1.714 1.389l2.768 5.23v.122h-2.83l-2.399-4.684Zm-2.1-2.136h2.126c.663 0 1.175-.167 1.538-.501.364-.34.545-.806.545-1.398 0-.603-.172-1.078-.518-1.423-.34-.346-.864-.519-1.573-.519h-2.118v3.84Zm11.663 6.82h-2.637V3.928h2.636v12.797Zm9.834-2.637h-4.623l-.878 2.637h-2.804l4.763-12.797h2.444l4.79 12.797h-2.804l-.888-2.637Zm-3.91-2.135h3.199l-1.609-4.79-1.59 4.79Zm11.434 2.654h5.599v2.118h-8.236V3.928h2.637v10.679Zm8.675-3.094v5.212h-1.081V3.928h4.36c1.33 0 2.378.34 3.146 1.02.773.68 1.16 1.614 1.16 2.804 0 1.2-.372 2.13-1.117 2.786-.738.65-1.81.975-3.216.975h-3.252Zm0-.914h3.278c1.049 0 1.849-.249 2.4-.747.55-.498.826-1.192.826-2.083 0-.885-.276-1.588-.826-2.11-.545-.527-1.322-.796-2.33-.808h-3.348V10.6Zm14.792.8h-3.718v5.326h-1.09V3.928h4.157c1.366 0 2.432.331 3.2.993.767.663 1.151 1.588 1.151 2.778 0 .82-.24 1.544-.721 2.17-.48.628-1.125 1.061-1.933 1.302l3.199 5.44v.114h-1.152L104.52 11.4Zm-3.718-.923h3.313c.909 0 1.638-.258 2.189-.773.551-.516.826-1.184.826-2.004 0-.903-.287-1.603-.861-2.1-.574-.499-1.38-.748-2.417-.748h-3.05v5.625Zm19.819.545c0 1.178-.205 2.212-.615 3.103-.404.89-.984 1.576-1.74 2.056s-1.629.72-2.619.72c-1.494 0-2.701-.532-3.621-1.599-.92-1.072-1.38-2.516-1.38-4.333V9.65c0-1.166.205-2.197.615-3.094.416-.902 1.002-1.594 1.758-2.074.756-.486 1.626-.73 2.61-.73s1.852.238 2.602.712c.756.475 1.339 1.146 1.749 2.013.41.867.624 1.872.641 3.015v1.53Zm-1.081-1.389c0-1.54-.348-2.748-1.046-3.62-.697-.874-1.652-1.31-2.865-1.31-1.189 0-2.139.44-2.848 1.318-.703.873-1.054 2.095-1.054 3.665v1.336c0 1.518.351 2.722 1.054 3.612.704.885 1.659 1.328 2.866 1.328 1.224 0 2.179-.437 2.865-1.31.685-.879 1.028-2.1 1.028-3.665V9.632Z"></path></svg>