<svg xmlns="http://www.w3.org/2000/svg" width="122" height="20" fill="none"><path fill="#fff" d="m4.588 3.203 3.287 9.281 3.27-9.28h3.462V16h-2.645v-3.498l.264-6.038L8.77 16h-1.81L3.516 6.473l.263 6.029V16H1.143V3.203h3.445Zm19.705 10.16H19.67L18.79 16h-2.804l4.764-12.797h2.443L27.984 16h-2.803l-.888-2.637Zm-3.911-2.136h3.2l-1.61-4.79-1.59 4.79ZM37.758 5.34h-3.92V16H31.2V5.339h-3.867V3.203h10.424V5.34Zm9.21 5.115h-5.062v3.428h5.942V16H39.27V3.203h8.56V5.34h-5.924v3.05h5.063v2.065Zm7.164.861h-2.1V16h-2.637V3.203h4.754c1.512 0 2.678.337 3.498 1.01.82.675 1.23 1.627 1.23 2.857 0 .873-.19 1.603-.57 2.189-.375.58-.947 1.043-1.714 1.389l2.768 5.229V16h-2.83l-2.4-4.685Zm-2.1-2.135h2.126c.662 0 1.175-.167 1.538-.501.364-.34.545-.806.545-1.398 0-.603-.173-1.078-.518-1.424-.34-.345-.865-.518-1.574-.518h-2.118v3.84ZM63.693 16h-2.636V3.203h2.636V16Zm9.835-2.637h-4.623L68.027 16h-2.803l4.763-12.797h2.444L77.22 16h-2.804l-.888-2.637Zm-3.91-2.136h3.198l-1.608-4.79-1.59 4.79Zm11.434 2.655h5.598V16h-8.235V3.203h2.637v10.679Zm8.675-3.094V16h-1.081V3.203h4.359c1.33 0 2.379.34 3.146 1.02.774.68 1.16 1.614 1.16 2.803 0 1.202-.372 2.13-1.116 2.787-.738.65-1.81.975-3.216.975h-3.252Zm0-.914h3.278c1.049 0 1.849-.249 2.4-.747.55-.498.825-1.192.825-2.083 0-.885-.275-1.588-.826-2.11-.545-.527-1.321-.796-2.329-.808h-3.348v5.748Zm14.792.8h-3.718V16h-1.09V3.203h4.157c1.365 0 2.432.331 3.199.993.768.662 1.152 1.588 1.152 2.778 0 .82-.241 1.544-.721 2.17-.48.627-1.125 1.061-1.934 1.301l3.2 5.44V16h-1.152l-3.093-5.326Zm-3.718-.923h3.313c.908 0 1.638-.258 2.189-.773.55-.516.826-1.184.826-2.004 0-.903-.287-1.603-.861-2.101-.575-.498-1.38-.747-2.417-.747h-3.05v5.625Zm19.819.545c0 1.178-.205 2.212-.615 3.102-.404.891-.985 1.577-1.74 2.057-.756.48-1.629.72-2.62.72-1.494 0-2.701-.532-3.621-1.599-.92-1.072-1.379-2.516-1.379-4.333V8.925c0-1.166.205-2.197.615-3.094.416-.902 1.002-1.594 1.758-2.074.755-.486 1.626-.73 2.61-.73s1.851.238 2.601.712c.756.475 1.339 1.146 1.749 2.013.411.867.625 1.872.642 3.015v1.529Zm-1.081-1.389c0-1.54-.349-2.748-1.046-3.62-.697-.874-1.652-1.31-2.865-1.31-1.19 0-2.139.439-2.848 1.318-.703.873-1.054 2.095-1.054 3.665v1.336c0 1.518.351 2.722 1.054 3.612.703.885 1.658 1.327 2.865 1.327 1.225 0 2.18-.436 2.866-1.31.685-.878 1.028-2.1 1.028-3.664V8.907Z"></path></svg>